<svg width="146" height="36" viewBox="0 0 146 36" fill="none" xmlns="http://www.w3.org/2000/svg">
<g clip-path="url(#clip0_941_44411)">
<path d="M68.2465 21.9241C68.2465 18.1547 65.1913 15.0995 61.4218 15.0995C57.6523 15.0995 54.5972 18.1547 54.5972 21.9241C54.5972 25.6936 57.6523 28.7488 61.4218 28.7488C64.0527 28.7488 66.3356 27.2599 67.4741 25.0794L65.2743 24.3457C64.469 25.6242 63.0449 26.4739 61.4218 26.4739C59.3016 26.4739 57.5204 25.0237 57.0154 23.0616H68.1509C68.2146 22.6919 68.2465 22.312 68.2465 21.9241ZM57.0154 20.7867C57.5204 18.8246 59.3016 17.3744 61.4218 17.3744C63.542 17.3744 65.3232 18.8246 65.8283 20.7867H57.0154Z" fill="#3C3C3C"/>
<path d="M110.332 21.9241C110.332 18.1547 107.277 15.0995 103.507 15.0995C99.7378 15.0995 96.6826 18.1547 96.6826 21.9241C96.6826 25.6936 99.7378 28.7488 103.507 28.7488C106.138 28.7488 108.421 27.2599 109.56 25.0794L107.36 24.3457C106.554 25.6242 105.13 26.4739 103.507 26.4739C101.387 26.4739 99.6058 25.0237 99.1008 23.0616H110.236C110.3 22.6919 110.332 22.312 110.332 21.9241ZM99.1008 20.7867C99.6058 18.8246 101.387 17.3744 103.507 17.3744C105.627 17.3744 107.409 18.8246 107.914 20.7867H99.1008Z" fill="#3C3C3C"/>
<path d="M130.237 15.0995C126.467 15.0995 123.412 18.1547 123.412 21.9241C123.412 25.6936 126.467 28.7488 130.237 28.7488C134.006 28.7488 137.061 25.6936 137.061 21.9241C137.061 18.1547 134.006 15.0995 130.237 15.0995ZM130.237 27.6113C127.096 27.6113 124.55 25.0646 124.55 21.9241C124.55 18.7837 127.096 16.2369 130.237 16.2369C133.377 16.2369 135.924 18.7825 135.924 21.9241C135.924 25.0657 133.377 27.6113 130.237 27.6113Z" fill="#3C3C3C"/>
<path d="M76.2084 15.0995C72.439 15.0995 69.3838 18.1547 69.3838 21.9241C69.3838 25.6936 72.439 28.7488 76.2084 28.7488C77.9567 28.7488 79.5502 28.0925 80.7582 27.0119V28.4644H83.0331V21.9241C83.0331 18.1547 79.9779 15.0995 76.2084 15.0995ZM76.2084 26.4739C73.6958 26.4739 71.6587 24.4367 71.6587 21.9241C71.6587 19.4115 73.6958 17.3744 76.2084 17.3744C78.721 17.3744 80.7582 19.4115 80.7582 21.9241C80.7582 24.4367 78.721 26.4739 76.2084 26.4739Z" fill="#3C3C3C"/>
<path d="M50.9436 19.1625C51.7989 18.2469 52.3222 17.0196 52.3222 15.6683C52.3222 12.8417 50.0302 10.5498 47.2037 10.5498H40.9478V28.4645H48.4833C49.8573 28.4645 51.1017 27.9072 52.0014 27.0074C52.9023 26.1066 53.4596 24.8622 53.4596 23.4882C53.4596 21.6353 52.4461 20.0179 50.9436 19.1625ZM43.2226 12.8247H47.2037C48.7745 12.8247 50.0473 14.0975 50.0473 15.6683C50.0473 16.4543 49.7288 17.164 49.2147 17.6793C48.7005 18.1934 47.9885 18.5119 47.2037 18.5119H43.2226V12.8247ZM50.3521 25.6414C49.838 26.1555 49.126 26.474 48.3411 26.474H43.2226V20.7868H48.3411C49.9119 20.7868 51.1847 22.0596 51.1847 23.6304C51.1847 24.4163 50.8662 25.1261 50.3521 25.6414Z" fill="#3C3C3C"/>
<path d="M117.156 15.0995V17.3744H116.588C115.017 17.3744 113.744 18.6472 113.744 20.218V28.4644H111.469V15.3838H113.744V17.3744C113.744 16.1175 114.762 15.0995 116.019 15.0995H117.156Z" fill="#3C3C3C"/>
<path d="M96.6745 15.3839L91.1215 28.4645H88.5862L83.0332 15.3839H85.5037L89.8544 25.6311L94.204 15.3839H96.6745Z" fill="#3C3C3C"/>
<path d="M121.137 10.5498H120V28.4645H121.137V10.5498Z" fill="#3C3C3C"/>
<path d="M145.024 10.5498V11.6872H140.474V28.4645H139.336V11.6872H134.787V10.5498H145.024Z" fill="#3C3C3C"/>
<path d="M17.1445 29.8862H11.653C9.83648 29.8862 8.26908 28.8204 7.54339 27.2803C7.5252 27.2405 7.50586 27.1996 7.4888 27.1586C7.24538 26.6036 7.1123 25.9905 7.1123 25.3456C7.1123 24.5323 7.32614 23.7679 7.70036 23.1082L8.02112 22.5531C9.07325 20.7571 12.638 14.7981 15.9627 10.7522C15.4077 11.4949 1.81069 29.8862 17.1445 29.8862Z" fill="#A384FC"/>
<path d="M26.0745 29.8863H17.1444C1.81173 29.8863 15.4087 11.495 15.9626 10.7522C15.966 10.7477 15.9683 10.7443 15.9706 10.742C15.9774 10.7329 15.9808 10.7295 15.9808 10.7295C15.6623 10.6055 15.4371 10.2961 15.4371 9.93441C15.4371 9.78654 15.4747 9.64891 15.5406 9.5272C15.5463 9.51469 15.5531 9.50332 15.5611 9.49194C15.6464 9.3509 15.7715 9.23716 15.9217 9.1655C15.9353 9.15867 15.9501 9.15185 15.9649 9.14616L22.5404 6.07962C22.6565 6.02616 22.7907 6 22.9022 6C23.1262 6 23.3469 6.08531 23.5118 6.25137L25.4477 8.19412C25.4477 8.19412 25.9471 8.67754 25.7992 9.62275C25.6525 10.5702 25.3784 12.157 24.3353 13.581C23.2934 15.0017 22.1094 16.4758 21.8955 18.4527C21.8955 18.4561 21.8955 18.4595 21.8955 18.4629C21.85 18.7735 21.8273 19.0908 21.8273 19.4138C21.8273 19.4798 21.8273 19.5446 21.8307 19.6095C21.8307 19.6095 21.8307 19.6103 21.8307 19.6118C21.8637 20.8083 22.1458 21.393 22.3516 21.9981C22.7452 23.1515 22.6383 24.1524 22.6417 24.1695C20.9651 23.3937 19.0974 22.9627 17.1296 22.9627C16.7907 22.9627 16.454 22.9752 16.1207 23.0013C22.1105 23.0684 23.6187 26.4921 23.9645 27.7001C23.9645 27.7035 23.9668 27.7058 23.9668 27.7092C23.9964 27.8366 24.0271 27.9708 24.0589 28.1141C24.0589 28.1164 24.0589 28.1187 24.0589 28.1187C24.0589 28.1187 25.193 28.1596 25.7605 28.9376C25.7731 28.9558 25.7867 28.9729 25.7992 28.9911C25.9539 29.2243 26.0597 29.5177 26.0756 29.8897L26.0745 29.8863Z" fill="#7B4EFA"/>
<path d="M8.91417 15.2712C9.64554 16.0026 9.79455 17.1332 9.27701 18.0295L6.69844 22.4951C6.69844 22.4951 6.69389 22.5008 6.69275 22.5042C6.21275 23.3414 5.93749 24.3105 5.93749 25.3444C5.93749 26.1247 6.09332 26.8674 6.37654 27.5442L0.42431 21.5931C-0.0397655 21.129 -0.134174 20.4113 0.193409 19.8426L2.33294 16.138C3.7081 13.7562 6.96915 13.3262 8.91417 15.2712Z" fill="#A384FC"/>
<path d="M33.6991 21.8274L28.3304 27.1962C27.864 27.6625 27.1076 27.6625 26.6413 27.1962L25.0728 25.6276L29.8989 20.8015L25.0728 15.9753L26.6413 14.4068C27.1076 13.9404 27.864 13.9404 28.3304 14.4068L33.6991 19.7755C34.2655 20.3419 34.2655 21.2599 33.6991 21.8263V21.8274Z" fill="#A384FC"/>
</g>
<defs>
<clipPath id="clip0_941_44411">
<rect width="145.024" height="24" fill="white" transform="translate(0 6)"/>
</clipPath>
</defs>
</svg>
