<svg width="36" height="36" viewBox="0 0 36 36" fill="none" xmlns="http://www.w3.org/2000/svg">
<g clip-path="url(#clip0_941_44426)">
<path d="M17.645 29.8862H12.1535C10.337 29.8862 8.76957 28.8204 8.04388 27.2803C8.02568 27.2405 8.00635 27.1996 7.98929 27.1586C7.74587 26.6036 7.61279 25.9905 7.61279 25.3456C7.61279 24.5323 7.82663 23.7679 8.20085 23.1082L8.52161 22.5531C9.57374 20.7571 13.1385 14.7981 16.4632 10.7522C15.9081 11.4949 2.31118 29.8862 17.645 29.8862Z" fill="#A384FC"/>
<path d="M26.5755 29.8863H17.6454C2.3127 29.8863 15.9097 11.495 16.4636 10.7522C16.467 10.7477 16.4693 10.7443 16.4716 10.742C16.4784 10.7329 16.4818 10.7295 16.4818 10.7295C16.1633 10.6055 15.9381 10.2961 15.9381 9.93441C15.9381 9.78654 15.9756 9.64891 16.0416 9.5272C16.0473 9.51469 16.0541 9.50332 16.0621 9.49194C16.1474 9.3509 16.2725 9.23716 16.4227 9.1655C16.4363 9.15867 16.4511 9.15185 16.4659 9.14616L23.0414 6.07962C23.1574 6.02616 23.2917 6 23.4031 6C23.6272 6 23.8479 6.08531 24.0128 6.25137L25.9487 8.19412C25.9487 8.19412 26.4481 8.67754 26.3002 9.62275C26.1535 10.5702 25.8793 12.157 24.8363 13.581C23.7944 15.0017 22.6103 16.4758 22.3965 18.4527C22.3965 18.4561 22.3965 18.4595 22.3965 18.4629C22.351 18.7735 22.3282 19.0908 22.3282 19.4138C22.3282 19.4798 22.3282 19.5446 22.3317 19.6095C22.3317 19.6095 22.3317 19.6103 22.3317 19.6118C22.3646 20.8083 22.6467 21.393 22.8526 21.9981C23.2462 23.1515 23.1392 24.1524 23.1427 24.1695C21.4661 23.3937 19.5984 22.9627 17.6306 22.9627C17.2917 22.9627 16.955 22.9752 16.6217 23.0013C22.6115 23.0684 24.1197 26.4921 24.4655 27.7001C24.4655 27.7035 24.4678 27.7058 24.4678 27.7092C24.4974 27.8366 24.5281 27.9708 24.5599 28.1141C24.5599 28.1164 24.5599 28.1187 24.5599 28.1187C24.5599 28.1187 25.6939 28.1596 26.2615 28.9376C26.274 28.9558 26.2877 28.9729 26.3002 28.9911C26.4549 29.2243 26.5607 29.5177 26.5766 29.8897L26.5755 29.8863Z" fill="#7B4EFA"/>
<path d="M9.41466 15.2712C10.146 16.0026 10.295 17.1332 9.7775 18.0295L7.19892 22.4951C7.19892 22.4951 7.19437 22.5008 7.19324 22.5042C6.71324 23.3414 6.43798 24.3105 6.43798 25.3444C6.43798 26.1247 6.59381 26.8674 6.87703 27.5442L0.924798 21.5931C0.460723 21.129 0.366315 20.4113 0.693898 19.8426L2.83343 16.138C4.20859 13.7562 7.46963 13.3262 9.41466 15.2712Z" fill="#A384FC"/>
<path d="M34.1996 21.8274L28.8309 27.1962C28.3645 27.6625 27.6081 27.6625 27.1418 27.1962L25.5732 25.6276L30.3994 20.8015L25.5732 15.9753L27.1418 14.4068C27.6081 13.9404 28.3645 13.9404 28.8309 14.4068L34.1996 19.7755C34.766 20.3419 34.766 21.2599 34.1996 21.8263V21.8274Z" fill="#A384FC"/>
</g>
<defs>
<clipPath id="clip0_941_44426">
<rect width="35.0005" height="24" fill="white" transform="translate(0.5 6)"/>
</clipPath>
</defs>
</svg>
